PathFileType	4	(X/Y/Z)	/Users/itak/Documents/Research/Walk-IL/dataset/trc/00036_00004.trc
DataRate	CameraRate	NumFrames	NumMarkers	Units	OrigDataRate	OrigDataStartFrame	OrigNumFrames
100.000000	100.000000	4	53	mm	100.000000	453	726
Frame#	Time	RPSI			LPSI			L3			STRN			T10			C7			CLAV			RBAK			LBAK			LSHO			LUPA			LAEL			LAOL			LWTS			LWPS			LFRA			LIFD			LHPS			LHTS			RSHO			RUPA			RAEL			RAOL			RWTS			RWPS			RFRA			RIFD			RHTS			RHPS			RBHD			LFHD			RFHD			LBHD			LHIP			RHIP			RASI			LASI			LKNE			LTHI			LANK			LTIP			LTOE			LMT1			LMT5			LHEE			RKNE			RTHI			RANK			RTIP			RTOE			RMT1			RMT5			RHEE			
		X1	Y1	Z1	X2	Y2	Z2	X3	Y3	Z3	X4	Y4	Z4	X5	Y5	Z5	X6	Y6	Z6	X7	Y7	Z7	X8	Y8	Z8	X9	Y9	Z9	X10	Y10	Z10	X11	Y11	Z11	X12	Y12	Z12	X13	Y13	Z13	X14	Y14	Z14	X15	Y15	Z15	X16	Y16	Z16	X17	Y17	Z17	X18	Y18	Z18	X19	Y19	Z19	X20	Y20	Z20	X21	Y21	Z21	X22	Y22	Z22	X23	Y23	Z23	X24	Y24	Z24	X25	Y25	Z25	X26	Y26	Z26	X27	Y27	Z27	X28	Y28	Z28	X29	Y29	Z29	X30	Y30	Z30	X31	Y31	Z31	X32	Y32	Z32	X33	Y33	Z33	X34	Y34	Z34	X35	Y35	Z35	X36	Y36	Z36	X37	Y37	Z37	X38	Y38	Z38	X39	Y39	Z39	X40	Y40	Z40	X41	Y41	Z41	X42	Y42	Z42	X43	Y43	Z43	X44	Y44	Z44	X45	Y45	Z45	X46	Y46	Z46	X47	Y47	Z47	X48	Y48	Z48	X49	Y49	Z49	X50	Y50	Z50	X51	Y51	Z51	X52	Y52	Z52	X53	Y53	Z53	

454	4.53	594.6802978515625	1043.996704101562	-429.5765075683594	699.0599975585938	1050.914794921875	-554.8482666015625	639.5338134765625	1111.729370117188	-499.3391723632812	802.9994506835938	1293.771118164062	-333.8425598144531	617.3653564453125	1256.1357421875	-503.6866760253906	656.8359375	1521.380981445312	-450.951171875	770.6669311523438	1420.620483398438	-352.5995788574219	564.8338012695312	1380.355102539062	-443.6100463867188	707.1697998046875	1493.173950195312	-538.7171020507812	832.140869140625	1500.5703125	-525.716796875	850.5728149414062	1393.090454101562	-627.3951416015625	844.5410766601562	1188.179077148438	-697.9407958984375	744.2779541015625	1178.15185546875	-662.3875732421875	848.79052734375	918.0784912109375	-655.1270751953125	820.2730102539062	924.0250244140625	-738.8169555664062	847.58056640625	1073.861450195312	-720.7776489257812	838.2743530273438	727.5109252929688	-662.1297607421875	832.5400390625	829.6680908203125	-736.2617797851562	858.7327270507812	821.61767578125	-670.5350341796875	593.5733032226562	1486.047607421875	-276.5501403808594	536.253173828125	1412.721069335938	-241.3803405761719	492.6310729980469	1144.075073242188	-264.68798828125	559.298095703125	1122.564331054688	-336.284912109375	687.8571166992188	947.7752075195312	-179.4252166748047	610.5049438476562	900.783447265625	-163.5613708496094	510.3901672363281	1066.778442382812	-237.7243347167969	788.1411743164062	794.6934204101562	-153.9427032470703	747.3811645507812	863.8235473632812	-133.1596984863281	681.93994140625	826.4376831054688	-125.9691925048828	789.27099609375	1703.2890625	-388.1047058105469	714.8575439453125	1656.172607421875	-187.4590301513672	809.9940185546875	1664.547119140625	-212.0672302246094	649.9901733398438	1688.4716796875	-347.5599670410156	852.1171264648438	957.3863525390625	-577.9114379882812	620.7566528320312	916.0781860351562	-291.3537902832031	742.4013061523438	959.0734252929688	-272.2804565429688	889.3071899414062	1001.647583007812	-451.8132019042969	976.9719848632812	529.1350708007812	-448.6505737304688	950.0316162109375	663.0120849609375	-515.1676025390625	869.19921875	105.7749710083008	-707.3253784179688	922.9158935546875	329.1101684570312	-602.9458618164062	991.6981811523438	42.65632629394531	-533.5126342773438	936.4049682617188	55.2004508972168	-553.8508911132812	974.8256225585938	79.13850402832031	-650.16552734375	785.4307250976562	118.030647277832	-710.357421875	711.7811889648438	492.5078125	-386.9260559082031	659.6522827148438	749.0502319335938	-302.2569885253906	688.7487182617188	33.44334030151367	-563.1639404296875	708.60107421875	372.9524230957031	-428.2664794921875	896.8114624023438	31.93428230285645	-453.2157592773438	865.9365234375	40.25384902954102	-513.1716918945312	789.9931030273438	33.3626594543457	-453.3618469238281	673.3931274414062	38.84056854248047	-631.2960815429688	
455	4.54	601.2335205078125	1043.492065429688	-426.7443237304688	708.3795776367188	1050.33935546875	-549.8086547851562	646.8262329101562	1111.167236328125	-495.4264831542969	807.6600952148438	1293.306762695312	-327.2066650390625	624.9462890625	1255.633422851562	-499.9408569335938	663.4098510742188	1520.8837890625	-446.8260192871094	775.751220703125	1420.131591796875	-346.6453857421875	571.3084716796875	1379.9736328125	-440.5950622558594	715.0133056640625	1492.459228515625	-533.7664184570312	839.7586059570312	1499.82080078125	-519.1495971679688	859.0578002929688	1392.12109375	-620.4663696289062	852.7003784179688	1187.14404296875	-690.8463134765625	752.2069702148438	1177.39794921875	-655.7874755859375	855.2985229492188	916.6962280273438	-649.010498046875	827.0953369140625	923.2742309570312	-732.7612915039062	855.281494140625	1072.888671875	-713.962158203125	844.21630859375	726.228271484375	-656.853271484375	838.8342895507812	828.8431396484375	-730.5919799804688	864.8602905273438	820.38623046875	-664.9059448242188	597.7362060546875	1485.949096679688	-273.2673034667969	539.9542846679688	1412.6572265625	-238.675537109375	497.103515625	1143.739135742188	-261.1863708496094	564.5020751953125	1122.118530273438	-332.0985412597656	693.7218017578125	950.0887451171875	-173.0754699707031	616.8727416992188	902.4619750976562	-157.1264038085938	515.3158569335938	1066.725708007812	-233.4390869140625	795.4031982421875	798.2852783203125	-145.6616668701172	753.8385620117188	867.2193603515625	-125.7534942626953	688.7451782226562	829.235595703125	-118.440544128418	795.1705322265625	1702.833862304688	-382.1396484375	718.6239624023438	1655.530151367188	-182.3446350097656	813.9653930664062	1663.707641601562	-205.8898468017578	655.47021484375	1688.277587890625	-343.030029296875	861.81982421875	956.9553833007812	-569.291015625	623.4691772460938	915.6334228515625	-287.86767578125	744.934814453125	958.3624267578125	-266.1297912597656	895.7404174804688	1001.209777832031	-442.4703674316406	984.658203125	530.515869140625	-432.4950561523438	959.4176635742188	663.386474609375	-501.5546569824219	896.1369018554688	98.22380065917969	-682.7247314453125	940.52978515625	325.5927429199219	-583.072265625	1011.137817382812	42.78584671020508	-501.2205810546875	956.7218017578125	53.74380874633789	-524.7252197265625	999.305419921875	75.33830261230469	-619.8018188476562	812.2061157226562	108.6268081665039	-690.0433959960938	712.5723876953125	492.0119934082031	-385.3941345214844	661.7646484375	748.4207763671875	-299.6038513183594	688.8097534179688	33.6729850769043	-563.3466186523438	709.1187133789062	372.7276611328125	-427.3525390625	896.994140625	31.8386344909668	-453.2138061523438	866.0765380859375	40.33269119262695	-512.9835815429688	790.02880859375	33.32772445678711	-453.3870239257812	673.3344116210938	39.42218017578125	-631.49658203125	
456	4.55	607.7511596679688	1042.967529296875	-423.7069091796875	717.4384155273438	1049.635864257812	-544.708740234375	654.10498046875	1110.45947265625	-491.4210815429688	812.2523803710938	1292.661743164062	-320.5000610351562	632.4767456054688	1255.025268554688	-496.0755004882812	669.9493408203125	1520.269897460938	-442.5864868164062	780.8178100585938	1419.517211914062	-340.6331787109375	577.7763061523438	1379.489990234375	-437.46435546875	722.8115844726562	1491.644653320312	-528.7196655273438	847.3245239257812	1498.956909179688	-512.4849243164062	867.5075073242188	1391.051879882812	-613.405029296875	861.0084838867188	1186.027587890625	-683.6486206054688	760.2405395507812	1176.54248046875	-649.2239379882812	861.9234008789062	915.206787109375	-642.6201171875	834.2385864257812	922.3971557617188	-726.5184326171875	863.1927490234375	1071.806884765625	-706.970947265625	850.3511352539062	724.878662109375	-651.2509155273438	845.4578857421875	827.8826904296875	-724.6393432617188	871.183837890625	819.0855102539062	-658.9486083984375	601.933837890625	1485.697265625	-269.9023132324219	543.6768188476562	1412.45068359375	-235.8986968994141	501.492919921875	1143.291137695312	-257.706787109375	569.5946655273438	1121.554321289062	-327.9280090332031	699.3285522460938	952.2154541015625	-166.7293395996094	622.9580688476562	903.9695434570312	-150.7477569580078	520.1094970703125	1066.54443359375	-229.1982116699219	802.30517578125	801.6785888671875	-137.3364562988281	759.9484252929688	870.40966796875	-118.3282165527344	695.20751953125	831.861083984375	-110.9323501586914	801.0232543945312	1702.267822265625	-376.1295776367188	722.3333129882812	1654.803588867188	-177.1991119384766	817.864990234375	1662.784912109375	-199.6567230224609	660.9277954101562	1687.937377929688	-338.4671325683594	871.2532348632812	956.4002075195312	-560.7314453125	626.2597045898438	915.1307373046875	-284.3299865722656	747.5601196289062	957.5365600585938	-260.0494079589844	902.0406494140625	1000.6103515625	-433.26025390625	992.0186157226562	531.8888549804688	-416.4022216796875	968.4424438476562	663.7156982421875	-487.9539184570312	921.8963623046875	91.179443359375	-656.77001953125	957.4558715820312	322.2677612304688	-562.518310546875	1028.773071289062	43.12797927856445	-468.1395568847656	975.4312744140625	52.58794784545898	-494.68603515625	1022.258178710938	71.84822845458984	-588.29150390625	837.9943237304688	99.75516510009766	-668.2218017578125	713.6969604492188	491.5274047851562	-383.6357116699219	663.96337890625	747.7597045898438	-296.8095092773438	688.8801879882812	33.93041610717773	-563.5447998046875	709.89892578125	372.4427490234375	-426.2041625976562	897.1925659179688	31.73419761657715	-453.2149658203125	866.2327880859375	40.41036987304688	-512.7845458984375	790.0921630859375	33.29376220703125	-453.4082336425781	673.3754272460938	40.04692840576172	-631.7255249023438	
457	4.56	614.10107421875	1042.423217773438	-420.4778442382812	726.20166015625	1048.817138671875	-539.535400390625	661.4467163085938	1109.613525390625	-487.2964477539062	816.7982177734375	1291.853393554688	-313.7332458496094	639.9456787109375	1254.312133789062	-492.0695495605469	676.4714965820312	1519.54931640625	-438.2204284667969	785.8760375976562	1418.785278320312	-334.5643310546875	584.2296752929688	1378.917724609375	-434.2054443359375	730.5653686523438	1490.733154296875	-523.5751342773438	854.8433837890625	1497.978637695312	-505.7174987792969	875.92724609375	1389.879272460938	-606.20361328125	869.465087890625	1184.832275390625	-676.3501586914062	768.3831176757812	1175.592529296875	-642.7020263671875	868.69091796875	913.63916015625	-635.9615478515625	841.7093505859375	921.3908081054688	-720.08203125	871.3134155273438	1070.613891601562	-699.8038940429688	856.6970825195312	723.4661254882812	-645.3138427734375	852.4244384765625	826.7943725585938	-718.40185546875	877.718505859375	817.71826171875	-652.6543579101562	606.1610717773438	1485.30224609375	-266.4429321289062	547.4190063476562	1412.108764648438	-233.0394134521484	505.8055725097656	1142.731201171875	-254.2466735839844	574.5630493164062	1120.878051757812	-323.7789611816406	704.6724243164062	954.1436157226562	-160.3857574462891	628.7442626953125	905.2996826171875	-144.4362487792969	524.7805786132812	1066.2353515625	-225.0109405517578	808.8416748046875	804.85986328125	-128.96533203125	765.7114868164062	873.3788452148438	-110.8794937133789	701.327880859375	834.2951049804688	-103.4535827636719	806.8394165039062	1701.597290039062	-370.0620727539062	725.9854125976562	1654.004760742188	-172.0165710449219	821.7027587890625	1661.796142578125	-193.3657073974609	666.3662719726562	1687.451538085938	-333.8681640625	880.42431640625	955.7218627929688	-552.2454223632812	629.1460571289062	914.571044921875	-280.7187805175781	750.2831420898438	956.6091918945312	-254.0426788330078	908.2291870117188	999.8740234375	-424.1931762695312	999.0574340820312	533.25390625	-400.4473266601562	977.0842895507812	663.9877319335938	-474.3967590332031	946.347900390625	84.68132019042969	-629.5842895507812	973.6267700195312	319.1884765625	-541.3932495117188	1044.819213867188	43.71847152709961	-434.5478210449219	992.6875	51.7412223815918	-463.9417114257812	1043.68994140625	68.74807739257812	-555.8887939453125	862.6715698242188	91.47126007080078	-644.9508056640625	715.160888671875	491.0408325195312	-381.632080078125	666.2816162109375	747.0680541992188	-293.8442077636719	688.9732666015625	34.22153091430664	-563.749267578125	710.9422607421875	372.1060791015625	-424.8207397460938	897.396728515625	31.62160873413086	-453.2173156738281	866.385498046875	40.4735107421875	-512.6069946289062	790.1671142578125	33.27254486083984	-453.4145812988281	673.5330200195312	40.70894241333008	-631.971923828125	
